<svg width="43" height="42" viewBox="0 0 43 42" fill="none" xmlns="http://www.w3.org/2000/svg">
<path opacity="0.5" d="M5.8291 20.5625C6.04929 21.8126 6.35936 23.2596 6.72161 24.9501L7.47161 28.4501C8.32381 32.427 8.74992 34.4155 10.1938 35.5827C11.6377 36.75 13.6713 36.75 17.7385 36.75H25.2618C29.329 36.75 31.3627 36.75 32.8065 35.5827C34.2504 34.4155 34.6765 32.427 35.5287 28.45L36.2787 24.9501C36.641 23.2595 36.951 21.8126 37.1712 20.5625H5.8291Z" fill="#ECE7E2"/>
<path fill-rule="evenodd" clip-rule="evenodd" d="M16.6875 24.5C16.6875 23.7751 17.2751 23.1875 18 23.1875H25C25.7249 23.1875 26.3125 23.7751 26.3125 24.5C26.3125 25.2249 25.7249 25.8125 25 25.8125H18C17.2751 25.8125 16.6875 25.2249 16.6875 24.5Z" fill="#ECE7E2"/>
<path d="M15.0762 4.66308C15.4004 4.01473 16.1888 3.75193 16.8371 4.07611C17.4855 4.40028 17.7483 5.18866 17.4241 5.83701L14.213 12.2592C15.0585 12.25 15.9812 12.25 16.9883 12.25H26.0116C27.0189 12.25 27.9417 12.25 28.7873 12.2592L25.5762 5.83701C25.2521 5.18866 25.5149 4.40028 26.1632 4.07611C26.8115 3.75193 27.5999 4.01473 27.9241 4.66308L31.7761 12.3671C34.1439 12.5491 35.6298 13.0135 36.5885 14.1995C37.3504 15.142 37.5971 16.3146 37.5064 17.9375H37.2503C37.3376 17.9375 37.4229 17.946 37.5054 17.9623C37.4615 18.7229 37.3441 19.5822 37.1714 20.5625H5.82927C5.65659 19.5822 5.53919 18.7229 5.49524 17.9623C5.57774 17.946 5.66301 17.9375 5.75027 17.9375H5.49344C5.40282 16.3146 5.64944 15.142 6.41138 14.1995C7.37016 13.0135 8.85615 12.549 11.2242 12.3671L15.0762 4.66308Z" fill="#ECE7E2"/>
</svg>
