<svg width="42" height="42" viewBox="0 0 42 42" fill="none" xmlns="http://www.w3.org/2000/svg">
<circle opacity="0.5" cx="21" cy="15.75" r="12.25" fill="#ECE7E2"/>
<path d="M13.205 25.2003L12.8644 26.25L11.7499 30.3152C10.6503 34.3259 10.1005 36.3313 10.8342 37.4291C11.0913 37.8138 11.4363 38.1227 11.8365 38.3264C12.9786 38.908 14.742 37.9891 18.2688 36.1514C19.4423 35.54 20.029 35.2342 20.6525 35.1678C20.8836 35.1432 21.1164 35.1432 21.3475 35.1678C21.971 35.2342 22.5577 35.54 23.7312 36.1514C27.258 37.9891 29.0214 38.908 30.1635 38.3264C30.5637 38.1227 30.9087 37.8138 31.1658 37.4291C31.8995 36.3313 31.3497 34.3259 30.2501 30.3152L29.1356 26.25L28.795 25.2003C26.6771 26.9493 23.9612 28 21 28C18.0388 28 15.3229 26.9493 13.205 25.2003Z" fill="#ECE7E2"/>
</svg>
