<svg width="42" height="42" viewBox="0 0 42 42" fill="none" xmlns="http://www.w3.org/2000/svg">
<path opacity="0.5" d="M5.25 22.8145C5.25 20.8842 5.25 19.9191 5.93712 19.3562C6.18108 19.1563 6.47757 18.9964 6.80801 18.8863C7.73872 18.5764 8.9619 18.8816 11.4083 19.492C13.276 19.958 14.2098 20.191 15.1534 20.1669C15.5 20.158 15.8445 20.1235 16.182 20.0638C17.1008 19.9012 17.9199 19.4925 19.5579 18.675L21.9771 17.4678C24.0754 16.4207 25.1246 15.8972 26.3289 15.7764C27.5332 15.6557 28.7294 15.9542 31.1218 16.5511L33.1602 17.0597C34.8927 17.492 35.759 17.7082 36.2545 18.2228C36.75 18.7373 36.75 19.4208 36.75 20.7879V31.4355C36.75 33.3658 36.75 34.3309 36.0629 34.8938C35.8189 35.0937 35.5224 35.2536 35.192 35.3637C34.2613 35.6736 33.0381 35.3684 30.5917 34.758C28.724 34.292 27.7902 34.059 26.8466 34.0831C26.5 34.092 26.1555 34.1265 25.818 34.1862C24.8992 34.3488 24.0801 34.7575 22.4421 35.575L20.0229 36.7822C17.9246 37.8293 16.8754 38.3528 15.6711 38.4736C14.4668 38.5943 13.2706 38.2958 10.8782 37.6989L8.8398 37.1903C7.10725 36.758 6.24098 36.5418 5.74549 36.0273C5.25 35.5127 5.25 34.8292 5.25 33.4621V22.8145Z" fill="#ECE7E2"/>
<path fill-rule="evenodd" clip-rule="evenodd" d="M21 3.5C15.201 3.5 10.5 7.9662 10.5 13.4755C10.5 18.9417 13.8512 25.3202 19.0799 27.6012C20.2988 28.1329 21.7012 28.1329 22.9201 27.6012C28.1488 25.3202 31.5 18.9417 31.5 13.4755C31.5 7.9662 26.799 3.5 21 3.5ZM21 17.5C22.933 17.5 24.5 15.933 24.5 14C24.5 12.067 22.933 10.5 21 10.5C19.067 10.5 17.5 12.067 17.5 14C17.5 15.933 19.067 17.5 21 17.5Z" fill="#ECE7E2"/>
</svg>
