<svg width="448" height="512" viewBox="0 0 448 512" fill="none" xmlns="http://www.w3.org/2000/svg">
<g clip-path="url(#clip0_529_2672)">
<path d="M352 160V128C352 57.42 294.579 0 224 0C153.42 0 96 57.42 96 128V160H0V432C0 476.183 35.817 512 80 512H368C412.183 512 448 476.183 448 432V160H352ZM160 128C160 92.71 188.71 64 224 64C259.29 64 288 92.71 288 128V160H160V128ZM320 248C306.745 248 296 237.255 296 224C296 210.745 306.745 200 320 200C333.255 200 344 210.745 344 224C344 237.255 333.255 248 320 248ZM128 248C114.745 248 104 237.255 104 224C104 210.745 114.745 200 128 200C141.255 200 152 210.745 152 224C152 237.255 141.255 248 128 248Z" fill="black"/>
</g>
<defs>
<clipPath id="clip0_529_2672">
<rect width="448" height="512" fill="white"/>
</clipPath>
</defs>
</svg>
