<svg width="22" height="20" viewBox="0 0 22 20" fill="none" xmlns="http://www.w3.org/2000/svg">
<path fill-rule="evenodd" clip-rule="evenodd" d="M4.62436 2.42417C2.96537 3.18249 1.75 4.9862 1.75 7.13707C1.75 9.33447 2.64922 11.0282 3.93829 12.4797C5.00072 13.6761 6.28684 14.6676 7.54113 15.6346C7.83904 15.8643 8.13515 16.0925 8.42605 16.3219C8.95208 16.7365 9.42132 17.1005 9.87361 17.3648C10.3261 17.6292 10.6904 17.75 11 17.75C11.3096 17.75 11.6739 17.6292 12.1264 17.3648C12.5787 17.1005 13.0479 16.7365 13.574 16.3219C13.8649 16.0925 14.161 15.8643 14.4589 15.6346C15.7132 14.6676 16.9993 13.6761 18.0617 12.4797C19.3508 11.0282 20.25 9.33447 20.25 7.13707C20.25 4.9862 19.0346 3.18249 17.3756 2.42417C15.7639 1.68745 13.5983 1.88255 11.5404 4.02071C11.399 4.1676 11.2039 4.25061 11 4.25061C10.7961 4.25061 10.601 4.1676 10.4596 4.02071C8.40166 1.88255 6.23607 1.68745 4.62436 2.42417ZM11 2.45879C8.68795 0.390214 6.09896 0.100842 4.00076 1.05993C1.78471 2.0729 0.25 4.425 0.25 7.13707C0.25 9.8026 1.3605 11.836 2.81672 13.4758C3.98287 14.7889 5.41022 15.8879 6.67083 16.8586C6.95659 17.0786 7.23378 17.292 7.49742 17.4998C8.00965 17.9037 8.55954 18.3342 9.11682 18.6599C9.67386 18.9854 10.3096 19.25 11 19.25C11.6904 19.25 12.3261 18.9854 12.8832 18.6599C13.4405 18.3342 13.9903 17.9036 14.5026 17.4998C14.7662 17.292 15.0434 17.0786 15.3292 16.8586C16.5898 15.8879 18.0171 14.7889 19.1833 13.4758C20.6395 11.836 21.75 9.8026 21.75 7.13707C21.75 4.425 20.2153 2.0729 17.9992 1.05993C15.901 0.100842 13.3121 0.390214 11 2.45879Z" fill="#707070"/>
</svg>
