<svg xmlns="http://www.w3.org/2000/svg" version="1.1" xmlns:xlink="http://www.w3.org/1999/xlink" width="512" height="512" x="0" y="0" viewBox="0 0 28 28" style="enable-background:new 0 0 512 512" xml:space="preserve" class=""><g><path d="M9.908 12.034c.02.203.086.374.198.516.111.142.314.213.607.213.294 0 .496-.071.608-.213a.976.976 0 0 0 .197-.516c.01-.06.015-.157.015-.288v-.82c0-.131-.005-.228-.015-.289a.975.975 0 0 0-.197-.515c-.112-.143-.314-.214-.608-.214-.293 0-.496.071-.607.214a.97.97 0 0 0-.198.515c-.01.06-.017.157-.022.289a9.747 9.747 0 0 0 0 .82c.005.131.013.227.022.288zM17.894 15.45c-.111-.142-.314-.212-.607-.212-.294 0-.496.07-.608.212a.974.974 0 0 0-.197.516c-.01.061-.018.157-.022.288a13.389 13.389 0 0 0 0 .82c.004.132.012.228.022.289.02.202.086.375.197.516.112.142.314.213.608.213.293 0 .496-.071.607-.213a.97.97 0 0 0 .198-.516c.01-.06.015-.157.015-.289v-.82c0-.132-.006-.227-.015-.288a.97.97 0 0 0-.198-.516z" fill="#000000" data-original="#000000" class=""></path><path d="M25.746 14.646a.95.95 0 0 0 0-1.292L24.397 11.9a.536.536 0 0 1-.119-.522l.585-1.892A.95.95 0 0 0 24.3 8.32l-1.844-.719a.536.536 0 0 1-.336-.42l-.293-1.96a.95.95 0 0 0-1.01-.806l-1.976.148a.535.535 0 0 1-.483-.233l-1.114-1.639a.95.95 0 0 0-1.261-.288l-1.714.993a.536.536 0 0 1-.537 0l-1.715-.993a.95.95 0 0 0-1.261.287L9.642 4.33a.536.536 0 0 1-.483.233l-1.976-.148a.95.95 0 0 0-1.01.806l-.294 1.96a.536.536 0 0 1-.335.42l-1.845.72a.95.95 0 0 0-.562 1.165l.585 1.893a.536.536 0 0 1-.12.523l-1.348 1.453a.95.95 0 0 0 0 1.292l1.348 1.453c.13.14.176.34.12.523l-.587 1.892a.95.95 0 0 0 .562 1.166l1.845.72c.178.07.306.23.335.42l.293 1.96a.95.95 0 0 0 1.01.807l1.977-.149a.535.535 0 0 1 .483.233l1.115 1.638a.95.95 0 0 0 1.262.287l1.715-.994a.536.536 0 0 1 .537 0l1.714.994a.95.95 0 0 0 1.261-.288l1.114-1.638a.536.536 0 0 1 .483-.233l1.977.149a.95.95 0 0 0 1.01-.807l.294-1.96a.536.536 0 0 1 .335-.42l1.845-.72a.95.95 0 0 0 .562-1.165l-.586-1.892a.536.536 0 0 1 .12-.523zM9.051 13.484a1.775 1.775 0 0 1-.425-.607 2.272 2.272 0 0 1-.175-.691c-.02-.263-.03-.544-.03-.843 0-.298.01-.579.03-.842.02-.233.079-.463.175-.69.096-.229.238-.43.425-.608.187-.177.418-.321.69-.433.274-.111.598-.167.972-.167s.699.056.972.167c.273.112.503.256.69.433.188.177.33.38.426.607.096.228.154.458.174.69.02.264.03.545.03.843 0 .299-.01.58-.03.843-.02.233-.078.463-.174.69-.097.229-.238.431-.425.608a2.094 2.094 0 0 1-.691.425c-.273.106-.597.16-.972.16s-.698-.054-.971-.16a2.094 2.094 0 0 1-.691-.425zm2.011 5.534c-.07.091-.144.161-.22.212s-.184.076-.326.076h-.91a.397.397 0 0 1-.267-.083.274.274 0 0 1-.098-.22.36.36 0 0 1 .06-.167l7.5-9.868c.07-.092.144-.162.22-.213s.185-.076.327-.076h.91c.112 0 .2.028.266.083a.273.273 0 0 1 .084.296.42.42 0 0 1-.046.092zm8.487-1.503c-.02.233-.079.463-.174.69-.097.228-.239.43-.426.607a2.087 2.087 0 0 1-.69.425c-.274.107-.598.16-.972.16-.375 0-.698-.053-.971-.16a2.091 2.091 0 0 1-.692-.425 1.783 1.783 0 0 1-.425-.607 2.249 2.249 0 0 1-.174-.69 10.92 10.92 0 0 1-.03-.843c0-.298.01-.58.03-.843.02-.232.078-.462.174-.69a1.79 1.79 0 0 1 .425-.607c.188-.178.418-.322.692-.433.273-.112.596-.167.97-.167.375 0 .7.055.972.167a2.2 2.2 0 0 1 .691.433c.187.177.33.379.426.607.095.228.153.458.174.69.02.264.03.545.03.843 0 .299-.01.58-.03.843z" fill="#000000"></path></g></svg>
