<svg width="18" height="18" viewBox="0 0 18 18" fill="none" xmlns="http://www.w3.org/2000/svg">
<g clip-path="url(#clip0_88_200)">
<path fill-rule="evenodd" clip-rule="evenodd" d="M8.625 2.25C5.10418 2.25 2.25 5.10418 2.25 8.625C2.25 12.1458 5.10418 15 8.625 15C12.1458 15 15 12.1458 15 8.625C15 5.10418 12.1458 2.25 8.625 2.25ZM0.75 8.625C0.75 4.27576 4.27576 0.75 8.625 0.75C12.9742 0.75 16.5 4.27576 16.5 8.625C16.5 12.9742 12.9742 16.5 8.625 16.5C4.27576 16.5 0.75 12.9742 0.75 8.625Z" fill="#7F7F7F"/>
<path fill-rule="evenodd" clip-rule="evenodd" d="M13.3447 13.3447C13.6376 13.0518 14.1124 13.0518 14.4053 13.3447L17.0303 15.9697C17.3232 16.2626 17.3232 16.7374 17.0303 17.0303C16.7374 17.3232 16.2626 17.3232 15.9697 17.0303L13.3447 14.4053C13.0518 14.1124 13.0518 13.6376 13.3447 13.3447Z" fill="#7F7F7F"/>
</g>
<defs>
<clipPath id="clip0_88_200">
<rect width="18" height="18" fill="white"/>
</clipPath>
</defs>
</svg>
