<svg width="50" height="50" viewBox="0 0 50 50" fill="none" xmlns="http://www.w3.org/2000/svg">
<path d="M25 4.16663V37.5M25 45.8333V37.5M25 37.5L31.25 43.75M25 37.5L18.75 43.75M31.25 6.24996L25 12.5L18.75 6.24996" stroke="white" stroke-width="3" stroke-linecap="round"/>
<path opacity="0.5" d="M6.95791 14.5835L14.1748 18.7502M14.1748 18.7502L24.9999 25.0001M14.1748 18.7502L11.8871 10.2125M14.1748 18.7502L5.63713 21.0378M24.9999 25.0001L35.8254 31.2502M24.9999 25.0001L35.825 18.7502M24.9999 25.0001L14.1744 31.2502M35.8254 31.2502L43.0423 35.4168M35.8254 31.2502L44.3631 28.9625M35.8254 31.2502L38.1131 39.7878M43.0419 14.5835L35.825 18.7502M35.825 18.7502L38.1127 10.2125M35.825 18.7502L44.3627 21.0378M14.1744 31.2502L6.9575 35.4168M14.1744 31.2502L5.63672 28.9625M14.1744 31.2502L11.8867 39.7878" stroke="white" stroke-width="3" stroke-linecap="round"/>
</svg>
