<svg width="454" height="518" viewBox="0 0 454 518" fill="none" xmlns="http://www.w3.org/2000/svg">
<path fill-rule="evenodd" clip-rule="evenodd" d="M397.542 162.24C443.571 77.5337 460.812 11.4014 450.402 1.5775C441.489 -6.88015 367.778 20.1518 332.06 47.3464C325.229 52.6161 297.514 132.085 288.796 135.534C281.347 138.591 282.485 87.4551 286.682 65.0424C252.038 81.1444 193.843 122.684 161.704 151.473C159.199 153.75 152.726 257.942 149.733 261.065C143.617 267.18 125.206 190.508 120.066 197.079C46.4195 290.764 13.3371 395.248 44.0448 440.139C14.7033 487.372 0 517.949 0 517.949L22.6079 517.071C36.2703 493.682 49.8351 471.725 63.3348 450.451L64.2456 450.939C96.7099 454.127 175.756 444.986 254.673 371.144C254.673 371.144 210.758 346.064 217.915 338.55C225.006 331.003 293.155 308.558 300.279 300.1C325.815 269.587 340.258 255.404 359.613 225.738C364.72 217.996 306.557 232.081 311.274 224.436C315.861 217.02 326.53 179.318 397.542 162.24Z" fill="#ECE7E2"/>
</svg>
